<svg width="48" height="48" viewBox="0 0 48 48" fill="none" xmlns="http://www.w3.org/2000/svg">
<path fill-rule="evenodd" clip-rule="evenodd" d="M17.4013 11.1199C24.2578 7.5031 32.7388 10.2451 36.3609 17.1364C39.9778 24.0178 37.4597 32.6071 30.5986 36.2264C23.7421 39.8432 15.2611 37.1012 11.6391 30.2099C8.0222 23.3285 10.5402 14.7392 17.4013 11.1199ZM31.935 19.4626C29.5647 14.9529 24.0808 13.2495 19.7342 15.5424C15.3921 17.8328 13.6894 23.364 16.065 27.8837C18.4353 32.3934 23.9191 34.0968 28.2658 31.8039C32.6078 29.5135 34.3105 23.9822 31.935 19.4626Z" fill="#49C2E8"/>
<path fill-rule="evenodd" clip-rule="evenodd" d="M33.1848 7.99149C24.3158 2.87204 13.0062 5.90065 7.94268 14.7079C2.8769 23.5192 5.94446 34.888 14.8153 40.0085C23.6842 45.128 34.9939 42.0993 40.0573 33.2921C45.1231 24.4808 42.0556 13.112 33.1848 7.99149ZM3.608 12.2158C10.0603 0.99284 24.4398 -2.82964 35.6844 3.66115C46.9272 10.1509 50.842 24.5652 44.392 35.7842C37.9397 47.0072 23.5603 50.8296 12.3156 44.3389C1.07286 37.8491 -2.84201 23.4348 3.608 12.2158Z" fill="#49C2E8"/>
</svg>
